<?xml version="1.0" encoding="iso-8859-1"?>
<!-- Generator: Adobe Illustrator 29.8.0, SVG Export Plug-In . SVG Version: 9.03 Build 0)  -->
<svg version="1.1" xmlns="http://www.w3.org/2000/svg" xmlns:xlink="http://www.w3.org/1999/xlink" x="0px" y="0px"
	 viewBox="0 0 1024 1024" style="enable-background:new 0 0 1024 1024;" xml:space="preserve">
<g id="_x32__x5F_triple">
	
		<linearGradient id="SVGID_1_" gradientUnits="userSpaceOnUse" x1="967.5364" y1="2514.864" x2="1562.6481" y2="2800.0962" gradientTransform="matrix(0.8 0 0 0.8 -291.6 -1415.2)">
		<stop  offset="0" style="stop-color:#FF8C42"/>
		<stop  offset="0.2" style="stop-color:#FF7D30"/>
		<stop  offset="1" style="stop-color:#00D9F6"/>
	</linearGradient>
	<path style="fill:url(#SVGID_1_);" d="M370.273,648.939c1.391-30.809,9.541-60.823,21.864-88.849
		c1.193-2.783,8.547-19.678,9.541-20.274c1.391-0.795,23.455,17.492,26.834,19.877c116.081,76.128,272.71,55.854,361.162-53.071
		c3.379-4.174,16.498-25.84,18.088-26.436c5.963-2.584,41.94,59.432,45.12,66.786c94.614,212.284-121.05,435.302-336.514,338.303
		l-4.572-2.186c-0.398,0-0.795,0-1.193,0l-1.193-1.193c-77.52-30.411-134.964-120.652-139.535-202.545
		c-0.596-10.137-0.398-20.274,0-30.411l0,0l0,0H370.273z"/>
	
		<linearGradient id="SVGID_00000013187368379406278570000007690184424581062809_" gradientUnits="userSpaceOnUse" x1="834.4037" y1="2202.1587" x2="542.6121" y2="2799.0593" gradientTransform="matrix(0.8 0 0 0.8 -291.6 -1415.2)">
		<stop  offset="0" style="stop-color:#00FFEF"/>
		<stop  offset="1" style="stop-color:#00A3B9"/>
	</linearGradient>
	<path style="fill:url(#SVGID_00000013187368379406278570000007690184424581062809_);" d="M542.406,406.044
		c-50.686,16.697-95.607,51.083-126.814,94.216c-50.487,69.768-72.153,161.996-41.94,244.286l16.895,42.934
		C187.605,830.215,18.055,625.484,103.526,433.276c71.557-161.002,287.22-203.539,408.071-71.159
		C516.168,367.086,544.791,402.069,542.406,406.044L542.406,406.044z"/>
	
		<linearGradient id="SVGID_00000042719887775321324590000010744092101280547208_" gradientUnits="userSpaceOnUse" x1="891.3876" y1="2105.6655" x2="1516.9109" y2="2355.3184" gradientTransform="matrix(0.8 0 0 0.8 -291.6 -1415.2)">
		<stop  offset="0" style="stop-color:#00A3B9"/>
		<stop  offset="1" style="stop-color:#00D9F6"/>
	</linearGradient>
	<path style="fill:url(#SVGID_00000042719887775321324590000010744092101280547208_);" d="M643.181,102.724
		c231.366,64.798,260.784,387.797,34.387,475.056c-10.932,4.174-80.104,21.666-85.868,16.1c-0.994-0.994,3.18-24.448,3.379-28.623
		c6.957-141.722-89.843-268.337-231.366-289.605c-3.379-0.596-29.418-1.391-29.616-2.982c-0.398-4.174,17.69-42.338,21.268-48.499
		C410.622,124.589,532.467,71.716,643.181,102.724L643.181,102.724L643.181,102.724z"/>
</g>
<g id="Layer_1">
</g>
</svg>
