<?xml version="1.0" encoding="iso-8859-1"?>
<!-- Generator: Adobe Illustrator 29.8.0, SVG Export Plug-In . SVG Version: 9.03 Build 0)  -->
<svg version="1.1" xmlns="http://www.w3.org/2000/svg" xmlns:xlink="http://www.w3.org/1999/xlink" x="0px" y="0px"
	 viewBox="0 0 1024 1024" style="enable-background:new 0 0 1024 1024;" xml:space="preserve">
<g id="_x33__x5F_ai">
	<path style="fill:#00FFEF;" d="M668.425,781.716c-4.77-62.016-95.607-54.264-88.651,10.336
		c1.988,19.082,22.858,39.952,42.139,39.952h29.02l-12.125,43.729c-48.897,3.777-93.222-23.653-105.943-72.352
		c-1.391-5.565-1.988-10.535-1.988-10.535c-0.199-1.988-0.398-6.957-0.398-7.752c-0.398-73.544,78.513-114.093,142.119-78.315
		c60.425,33.989,39.157,111.708,43.133,168.754h-45.915c-0.795-31.405-1.193-62.811-1.193-94.216l0,0L668.425,781.716z"/>
	<path style="fill:#00FFEF;" d="M790.071,647.15c0.795,18.684,1.193,37.567,1.193,57.046v7.752c0,37.368-0.199,74.538-1.193,111.708
		h-44.922V647.349h44.922V647.15z"/>
	<circle style="fill:#00FFEF;" cx="767.61" cy="602.825" r="26.635"/>
</g>
<g id="Layer_1">
</g>
</svg>
