<?xml version="1.0" encoding="UTF-8"?>
<svg id="Ebene_1" xmlns="http://www.w3.org/2000/svg" xmlns:xlink="http://www.w3.org/1999/xlink" version="1.1" viewBox="0 0 512 512">
  <!-- Generator: Adobe Illustrator 29.4.0, SVG Export Plug-In . SVG Version: 2.1.0 Build 152)  -->
  <defs>
    <style>
      .st0 {
        fill: url(#Unbenannter_Verlauf_2);
      }

      .st1 {
        fill: url(#Unbenannter_Verlauf_4);
      }

      .st2 {
        fill: url(#Unbenannter_Verlauf_3);
      }

      .st3 {
        fill: url(#Unbenannter_Verlauf);
        fill-rule: evenodd;
      }

      .st4 {
        fill: #00a3b9;
      }

      .st5 {
        fill: #ff8c42;
      }

      .st6 {
        fill: #00ffef;
      }
    </style>
    <linearGradient id="Unbenannter_Verlauf" data-name="Unbenannter Verlauf" x1="535.7" y1="-913.26" x2="288.24" y2="-1534.9" gradientTransform="translate(-53 -662) scale(.75 -.75)" gradientUnits="userSpaceOnUse">
      <stop offset="0" stop-color="#00d9f6"/>
      <stop offset="1" stop-color="#ff8c42"/>
    </linearGradient>
    <linearGradient id="Unbenannter_Verlauf_2" data-name="Unbenannter Verlauf 2" x1="341.44" y1="-1248.7" x2="604.25" y2="-1374.75" gradientTransform="translate(-53 -662) scale(.75 -.75)" gradientUnits="userSpaceOnUse">
      <stop offset="0" stop-color="#ff8c42"/>
      <stop offset=".24" stop-color="#ff7d30"/>
      <stop offset="1" stop-color="#00d9f6"/>
    </linearGradient>
    <linearGradient id="Unbenannter_Verlauf_3" data-name="Unbenannter Verlauf 3" x1="344.34" y1="-1094.56" x2="215.47" y2="-1358.22" gradientTransform="translate(-53 -662) scale(.75 -.75)" gradientUnits="userSpaceOnUse">
      <stop offset="0" stop-color="#00ffef"/>
      <stop offset="1" stop-color="#00a3b9"/>
    </linearGradient>
    <linearGradient id="Unbenannter_Verlauf_4" data-name="Unbenannter Verlauf 4" x1="312.79" y1="-1062.99" x2="589.06" y2="-1173.22" gradientTransform="translate(-53 -662) scale(.75 -.75)" gradientUnits="userSpaceOnUse">
      <stop offset="0" stop-color="#00a3b9"/>
      <stop offset="1" stop-color="#00d9f6"/>
    </linearGradient>
  </defs>
  <path id="ring" class="st3" d="M245.53,508.3C108.27,502.6.75,388.22,3.54,250.88,6.33,113.53,118.41,3.61,255.78,3.49c137.37-.12,249.64,109.61,252.67,246.95,3.03,137.34-104.3,251.9-241.55,257.84-7.12.3-14.26.31-21.38.02h0ZM268.38,491.64c-8.44.44-16.89.43-25.33-.03-127.67-7.04-226.51-114.47-222.9-242.28C23.77,121.52,128.51,19.84,256.37,20.02c127.86.17,232.32,102.15,235.58,229.96s-95.88,234.98-223.56,241.67h0Z"/>
  <g id="triple">
    <path class="st0" d="M191.38,315.86c.64-13.6,4.17-26.83,9.7-39.23.54-1.22,3.79-8.71,4.21-8.96.64-.37,10.33,7.76,11.85,8.76,51.25,33.63,120.49,24.66,159.53-23.44,1.49-1.83,7.33-11.39,7.98-11.66,2.65-1.11,18.51,26.25,19.95,29.48,41.76,93.78-53.47,192.25-148.64,149.38l-1.99-.99c-.15-.05-.34.04-.5,0l-.5-.5c-34.21-13.43-59.61-53.33-61.61-89.43-.23-4.46-.2-8.95,0-13.41h0Z"/>
    <path class="st2" d="M267.38,208.51c-22.39,7.4-42.25,22.55-56.03,41.6-22.3,30.85-31.89,71.57-18.52,107.87l7.5,18.98c-89.68,18.97-164.52-71.48-126.78-156.34,31.61-71.09,126.82-89.91,180.19-31.47,2.02,2.21,14.7,17.67,13.64,19.36h0Z"/>
    <path class="st1" d="M311.92,74.6c102.21,28.63,115.15,171.32,15.22,209.83-4.79,1.84-35.37,9.6-37.89,7.09-.45-.45,1.42-10.82,1.51-12.65,3.06-62.6-39.66-118.52-102.19-127.89-1.53-.23-13.02-.65-13.09-1.31-.18-1.84,7.82-18.71,9.35-21.46,24.42-44,78.2-67.32,127.08-53.62Z"/>
  </g>
  <g id="ai">
    <g>
      <path class="st5" d="M191.38,329.27v-13.41c-.19,4.15-.23,9.28,0,13.41Z"/>
      <path class="st4" d="M255.97,420.19c-.61-.28-1.54-.11-1.99-.99.74.25,1.47.19,1.99.99Z"/>
      <path class="st6" d="M393.1,293c.4,8.47.57,17.08.52,25.84v3.48c.05,16.97-.12,33.86-.52,50.68h-20.38v-80h20.38Z"/>
      <circle class="st6" cx="382.93" cy="272.97" r="12.11"/>
      <polygon class="st4" points="372.72 370.51 372.73 293 372.72 293 372.72 370.51"/>
      <polygon class="st6" points="393.1 373 393.62 322.31 393.62 373 393.1 373"/>
      <polygon class="st4" points="393.62 318.84 393.1 293 393.62 293 393.62 318.84"/>
      <g>
        <path class="st6" d="M337.95,354.11c-2.16-28.09-43.4-24.64-40.24,4.71.93,8.62,10.38,18.14,19.12,18.14h13.17l-5.52,19.81c-22.16,1.75-42.33-10.69-48.09-32.8-.64-2.48-.9-4.77-.9-4.77-.13-.94-.15-3.19-.15-3.48-.21-33.32,35.61-51.73,64.44-35.49,27.4,15.44,17.73,50.73,19.54,76.6h-20.87c-.36-14.23-.53-28.47-.5-42.73h0Z"/>
        <path class="st4" d="M338.44,396.84c-1.72-14.08.58-28.68-.5-42.73l.5,42.73Z"/>
      </g>
    </g>
  </g>
</svg>